<?xml version="1.0" encoding="UTF-8" standalone="no"?><!DOCTYPE svg PUBLIC "-//W3C//DTD SVG 1.1//EN" "http://www.w3.org/Graphics/SVG/1.1/DTD/svg11.dtd"><svg width="100%" height="100%" viewBox="0 0 267 267" version="1.1" xmlns="http://www.w3.org/2000/svg" xmlns:xlink="http://www.w3.org/1999/xlink" xml:space="preserve" xmlns:serif="http://www.serif.com/" style="fill-rule:evenodd;clip-rule:evenodd;stroke-linejoin:round;stroke-miterlimit:2;"><path d="M241.667,58.333l-100,0l-16.667,-16.666l-100,-0c-9.143,-0 -16.667,7.523 -16.667,16.666l0,150c0,9.143 7.524,16.667 16.667,16.667l216.667,0c9.143,0 16.666,-7.524 16.666,-16.667l0,-133.333c0,-9.143 -7.523,-16.667 -16.666,-16.667Z" style="fill:#fff;fill-rule:nonzero;"/><circle cx="133.333" cy="133.333" r="58.333" style="fill:#fff;fill-opacity:0.3;"/><g><path d="M133.333,83.333c9.143,0 16.667,7.524 16.667,16.667c0,9.143 -7.524,16.667 -16.667,16.667c-9.143,-0 -16.666,-7.524 -16.666,-16.667c-0,-9.143 7.523,-16.667 16.666,-16.667m0,-8.333c-13.714,0 -25,11.285 -25,25c0,13.715 11.286,25 25,25c13.715,0 25,-11.285 25,-25c0,-13.715 -11.285,-25 -25,-25Z" style="fill:#adadad;fill-rule:nonzero;"/><path d="M133.333,141.667c-22.208,-0 -66.666,11.125 -66.666,33.333l-0,16.667l133.333,-0l0,-16.667c0,-22.208 -44.458,-33.333 -66.667,-33.333Z" style="fill:#adadad;fill-rule:nonzero;"/></g></svg>