<svg xmlns="http://www.w3.org/2000/svg" viewBox="0 0 64 64" width="64" height="64">
    <defs>
        <style>.cls-1{fill:#0082c9;}.cls-2{fill:#fff;}</style>
    </defs>
    <path class="cls-1" d="M58,14H34L30,10H6a4,4,0,0,0-4,4V50a4,4,0,0,0,4,4H58a4,4,0,0,0,4-4V18A4,4,0,0,0,58,14Z"/>
    
    <circle class="cls-2" cx="32" cy="32" r="14" opacity="0.3"/>
    <g transform="translate(16, 16)">
        <path class="cls-2" d="M16,4a4,4,0,1,1-4,4A4,4,0,0,1,16,4m0-2a6,6,0,1,0,6,6A6,6,0,0,0,16,2Z"/>
        <path class="cls-2" d="M16,18c-5.33,0-16,2.67-16,8v4H32V26C32,20.67,21.33,18,16,18Z"/>
    </g>
</svg>